# xmcd
#
# Track frame offsets:
#	150
#	15752
#	31602
#	46270
#	65810
#	77987
#	96504
#	112880
#	131630
#	150912
#	166005
#	186250
#	206822
#	224900
#	241530
#	261720
#	282682
#	300127
#	310719
#	333175
#
# Disc length: 4592 seconds
#
# Revision: 1
# Processed by: cddbd v1.5PL3 Copyright (c) Steve Scherf et al.
# Submitted via: CDex 1.50Beta5
#
DISCID=1011ee14
DTITLE=森山良子 - GOLDEN J-POP/THE BEST 森山良子
DYEAR=1997
DGENRE=New Age
TTITLE0=幸せのすきま
TTITLE1=くちぶえジョニー
TTITLE2=アパート
TTITLE3=あなたへのラブソング
TTITLE4=White Christmas
TTITLE5=カフェテリア
TTITLE6=セフィニ
TTITLE7=わかれ
TTITLE8=夏の恋人
TTITLE9=DANCE
TTITLE10=風にゆられて
TTITLE11=NAVIGATION
TTITLE12=パート・オブ・ユア・ワールド
TTITLE13=なくしたものをあつめて
TTITLE14=今、思い出してみて
TTITLE15=手の中に…
TTITLE16=たとえ毎日が
TTITLE17=おしゃべり泥棒のテーマ
TTITLE18=PEOPLE
TTITLE19=Eternally
EXTD=
EXTT0=
EXTT1=
EXTT2=
EXTT3=
EXTT4=
EXTT5=
EXTT6=
EXTT7=
EXTT8=
EXTT9=
EXTT10=
EXTT11=
EXTT12=
EXTT13=
EXTT14=
EXTT15=
EXTT16=
EXTT17=
EXTT18=
EXTT19=
PLAYORDER=
